<?xml version="1.0" encoding="UTF-8"?>
<svg xmlns="http://www.w3.org/2000/svg" xmlns:xlink="http://www.w3.org/1999/xlink" width="40pt" height="40pt" viewBox="0 0 40 40" version="1.1">
<g id="surface1">
<rect x="0" y="0" width="40" height="40" style="fill:rgb(100%,100%,100%);fill-opacity:1;stroke:none;"/>
<path style=" stroke:none;fill-rule:nonzero;fill:rgb(52.156863%,91.764706%,17.647059%);fill-opacity:1;" d="M 1.230469 1.230469 L 38.769531 1.230469 L 38.769531 38.769531 L 1.230469 38.769531 Z M 1.230469 1.230469 "/>
<path style=" stroke:none;fill-rule:nonzero;fill:rgb(9.019608%,21.176471%,27.843137%);fill-opacity:1;" d="M 37.566406 2.449219 L 37.53125 37.574219 L 2.414062 37.484375 L 2.449219 2.449219 Z M 40 0 L 0 0 L 0 40 L 40 40 Z M 40 0 "/>
<path style=" stroke:none;fill-rule:nonzero;fill:rgb(9.019608%,21.176471%,27.843137%);fill-opacity:1;" d="M 11.90625 12.933594 C 11.839844 13.683594 11.933594 14.457031 11.882812 15.210938 C 11.828125 15.96875 11.726562 16.722656 11.578125 17.464844 C 11.335938 18.511719 10.691406 19.425781 9.789062 20.011719 C 11.570312 21.171875 11.773438 22.96875 11.890625 24.792969 C 11.949219 25.777344 11.925781 26.765625 12.027344 27.742188 C 12.101562 28.496094 12.394531 28.691406 13.175781 28.714844 C 13.496094 28.722656 13.824219 28.714844 14.191406 28.714844 L 14.191406 31.050781 C 11.882812 31.449219 9.976562 30.792969 9.503906 28.835938 C 9.351562 28.113281 9.253906 27.382812 9.21875 26.648438 C 9.167969 25.867188 9.253906 25.085938 9.191406 24.304688 C 9.027344 22.160156 8.746094 21.4375 6.699219 21.339844 L 6.699219 18.675781 C 6.84375 18.640625 6.992188 18.617188 7.144531 18.597656 C 8.269531 18.539062 8.746094 18.195312 8.992188 17.085938 C 9.109375 16.460938 9.175781 15.832031 9.199219 15.195312 C 9.222656 13.96875 9.3125 12.742188 9.460938 11.523438 C 9.753906 9.785156 10.832031 8.945312 12.621094 8.84375 C 13.125 8.816406 13.636719 8.84375 14.214844 8.84375 L 14.214844 11.230469 C 13.972656 11.246094 13.761719 11.28125 13.542969 11.28125 C 12.09375 11.230469 12.015625 11.726562 11.90625 12.933594 Z M 11.90625 12.933594 "/>
<path style=" stroke:none;fill-rule:nonzero;fill:rgb(9.019608%,21.176471%,27.843137%);fill-opacity:1;" d="M 16.21875 20.027344 L 16.21875 20.109375 C 16.167969 20.941406 15.453125 21.578125 14.621094 21.53125 L 14.519531 21.53125 C 13.675781 21.484375 13.027344 20.765625 13.070312 19.921875 C 13.109375 19.078125 13.828125 18.425781 14.671875 18.464844 L 14.707031 18.464844 C 15.554688 18.476562 16.234375 19.175781 16.21875 20.027344 Z M 16.21875 20.027344 "/>
<path style=" stroke:none;fill-rule:nonzero;fill:rgb(9.019608%,21.176471%,27.843137%);fill-opacity:1;" d="M 21.527344 19.976562 C 21.566406 20.390625 21.421875 20.800781 21.132812 21.101562 C 20.84375 21.398438 20.4375 21.554688 20.023438 21.53125 C 19.609375 21.566406 19.199219 21.421875 18.902344 21.132812 C 18.601562 20.847656 18.441406 20.441406 18.460938 20.027344 C 18.453125 19.980469 18.453125 19.933594 18.453125 19.882812 C 18.480469 19.074219 19.160156 18.4375 19.972656 18.464844 C 20.386719 18.433594 20.796875 18.582031 21.09375 18.871094 C 21.390625 19.160156 21.550781 19.5625 21.527344 19.976562 Z M 21.527344 19.976562 "/>
<path style=" stroke:none;fill-rule:nonzero;fill:rgb(9.019608%,21.176471%,27.843137%);fill-opacity:1;" d="M 26.941406 20.019531 C 26.890625 20.917969 26.109375 21.667969 25.335938 21.53125 L 25.320312 21.53125 C 24.910156 21.53125 24.515625 21.371094 24.222656 21.078125 C 23.933594 20.789062 23.773438 20.394531 23.773438 19.984375 C 23.78125 19.109375 24.5 18.410156 25.375 18.417969 C 26.246094 18.429688 26.949219 19.144531 26.941406 20.019531 Z M 26.941406 20.019531 "/>
<path style=" stroke:none;fill-rule:nonzero;fill:rgb(9.019608%,21.176471%,27.843137%);fill-opacity:1;" d="M 33.300781 18.648438 L 33.300781 21.3125 C 33.183594 21.355469 33.0625 21.382812 32.941406 21.398438 C 31.636719 21.480469 31.042969 22.019531 30.914062 23.320312 C 30.832031 24.15625 30.839844 25 30.78125 25.84375 C 30.757812 26.757812 30.671875 27.675781 30.53125 28.582031 C 30.195312 30.226562 29.167969 31.050781 27.472656 31.152344 C 26.925781 31.1875 26.378906 31.152344 25.78125 31.152344 L 25.78125 28.777344 C 26.101562 28.757812 26.378906 28.734375 26.664062 28.726562 C 27.683594 28.699219 28.035156 28.375 28.085938 27.363281 C 28.144531 26.253906 28.167969 25.144531 28.210938 24.046875 C 28.285156 22.441406 28.722656 21.011719 30.210938 20.011719 C 29.363281 19.40625 28.679688 18.667969 28.496094 17.675781 C 28.289062 16.472656 28.21875 15.238281 28.101562 14.019531 C 28.042969 13.40625 28.042969 12.792969 27.984375 12.1875 C 27.925781 11.523438 27.472656 11.296875 26.875 11.289062 C 26.53125 11.28125 26.183594 11.28125 25.738281 11.28125 L 25.738281 8.960938 C 28.546875 8.5 30.480469 9.429688 30.65625 12.101562 C 30.730469 13.226562 30.722656 14.363281 30.792969 15.488281 C 30.824219 16.097656 30.917969 16.703125 31.070312 17.296875 C 31.3125 18.21875 31.800781 18.546875 32.773438 18.589844 C 32.933594 18.597656 33.082031 18.625 33.300781 18.648438 Z M 33.300781 18.648438 "/>
</g>
</svg>
